<svg width="273" height="107" viewBox="0 0 273 107" fill="none" xmlns="http://www.w3.org/2000/svg">
<g clip-path="url(#clip0_549_1311)">
<mask id="mask0_549_1311" style="mask-type:luminance" maskUnits="userSpaceOnUse" x="0" y="0" width="273" height="107">
<path d="M273 0H0V107H273V0Z" fill="white"/>
</mask>
<g mask="url(#mask0_549_1311)">
<path d="M243.087 54.389C239.143 56.7128 235.28 59.1438 232.051 62.4442C230.45 64.0809 229.112 65.9056 228.156 67.9931C228.043 68.24 227.828 68.4816 228.167 68.7821C230.165 70.5424 232.148 72.3188 234.131 74.0951C234.345 74.2883 234.469 74.433 234.636 74.0038C235.098 72.8232 235.758 71.7443 236.532 70.741C239.122 67.376 242.421 64.843 246.042 62.6911C250.071 60.2974 254.268 58.2205 258.329 55.8861C260.882 54.421 263.202 52.6717 264.992 50.3103C267.205 47.3964 268.21 44.1496 267.42 40.5003C266.829 37.7687 265.335 35.5363 263.331 33.6257C262.504 32.8366 261.623 32.1069 260.57 31.5918C260.446 31.8654 260.554 32.0746 260.597 32.2948C261.145 35.1497 261.069 37.9617 259.898 40.6613C258.55 43.7684 256.261 46.0922 253.558 48.0401C250.238 50.4339 246.601 52.3175 243.082 54.3943L243.087 54.389Z" fill="white"/>
<path d="M272.481 49.9932C272.218 50.5783 272.019 51.0828 271.772 51.571C269.918 55.2795 266.963 57.9575 263.573 60.2113C260.43 62.2988 257.04 63.9465 253.72 65.7122C250.308 67.5205 246.912 69.3561 244.129 72.0984C242.453 73.7511 240.943 75.5274 239.82 77.6099C239.622 77.9801 239.546 78.2537 239.928 78.6079C241.54 80.1106 243.119 81.6507 244.704 83.1801C244.919 83.3897 245.043 83.454 245.279 83.1481C247.885 79.8048 251.125 77.2074 254.821 75.1519C257.771 73.5098 260.86 72.1414 263.799 70.4777C271.552 66.077 274.238 57.6569 272.487 49.9932H272.481Z" fill="white"/>
<path d="M224.018 64.8376C224.168 64.9715 224.308 65.1218 224.469 65.2454C224.576 65.3257 224.732 65.433 224.829 65.401C225.011 65.3474 224.963 65.1381 224.963 64.9822C224.947 61.5315 224.952 58.0808 224.909 54.6248C224.888 52.7142 224.925 50.8306 225.919 49.1133C226.376 48.5605 226.827 48.0024 227.284 47.4496C227.73 47.16 228.058 46.7575 228.369 46.3387C229.471 45.2334 230.578 44.1225 231.679 43.017C233.183 41.4822 234.693 39.9578 236.181 38.4071C236.762 37.8006 237.46 37.2962 237.879 36.5448C237.938 36.5178 238.008 36.5018 238.051 36.4588C238.721 35.7899 239.396 35.781 240.077 36.4322C243.408 39.7272 246.744 43.0223 250.07 46.3227C250.306 46.5589 250.516 46.5426 250.806 46.4516C253.906 45.4694 255.878 42.9687 255.926 39.5663C256.001 34.1084 255.942 28.6452 255.942 23.1874C255.953 20.0211 255.953 16.8548 255.975 13.6885C255.975 13.2216 255.733 13.2431 255.416 13.2431C253.369 13.2485 251.327 13.2699 249.28 13.2431C248.77 13.2377 248.678 13.4202 248.684 13.8764C248.705 15.4112 248.71 16.9514 248.651 18.4863C248.635 18.9585 248.952 19.6884 248.501 19.8601C248.114 20.005 247.76 19.2966 247.394 18.9639C246.175 17.8315 245.111 16.5382 243.843 15.4488C243.757 15.4756 243.682 15.481 243.612 15.4702C243.682 15.4756 243.757 15.4702 243.843 15.4488C242.779 14.3003 241.71 13.1572 240.533 12.1215C240.501 11.982 240.426 11.8746 240.275 11.837L240.254 11.821C239.534 11.0321 238.868 10.1841 238.073 9.47575C236.831 8.36488 235.666 7.17351 234.527 5.97674C232.872 4.23797 231.115 2.60116 229.465 0.86239C229.025 0.400865 228.514 0.0413029 227.8 0.00373675C226.806 -0.049929 226.172 0.481364 225.576 1.15219C223.4 3.59935 221.062 5.8855 218.811 8.26292C217.457 9.69044 216.114 11.1179 214.766 12.5454C213.175 14.2091 211.585 15.8727 210 17.5364C209.167 18.3897 208.318 19.2161 207.512 20.0909C203.542 24.4002 199.432 28.5808 195.419 32.8526C194.897 33.4107 194.215 33.8348 193.903 34.5752C193.946 34.7042 194 34.8275 194.065 34.9454C194.005 34.8275 193.952 34.7095 193.903 34.5752C192.84 35.4016 192.007 36.4428 191.169 37.4841C190.287 38.5627 189.863 39.8076 189.858 41.187C189.836 44.2941 189.981 46.7575 189.97 49.8647C193.436 50.7663 193.285 51.1152 197.847 52.3547C197.906 49.1456 197.723 46.2421 197.97 43.033C197.9 43.033 197.825 43.0383 197.756 43.0436C197.75 43.5858 197.745 44.1279 197.739 44.6697C197.739 47.3047 197.664 48.2816 197.67 50.9166C197.67 48.2816 197.745 47.3047 197.739 44.6697C197.745 44.1279 197.75 43.5858 197.756 43.0436C197.825 43.0436 197.9 43.0383 197.97 43.033C198.261 42.2119 198.599 41.4176 199.158 40.7308C199.244 40.6609 199.335 40.5912 199.41 40.516C200.925 38.9545 202.462 37.4141 203.94 35.8151C204.385 35.3319 204.622 35.5035 204.976 35.8577C206.529 37.4195 208.104 38.9545 209.645 40.5216C210.553 41.4446 211.112 42.5392 211.295 43.8433C211.445 44.9219 211.349 45.9955 211.381 47.0687C211.397 47.6269 211.381 48.1903 211.381 48.7055C211.601 48.7807 211.666 48.7108 211.73 48.6465C214.432 45.8129 217.13 42.9793 219.843 40.1564C220.133 39.8559 219.913 39.7326 219.735 39.5553C218.5 38.3265 217.269 37.0922 216.034 35.8687C213.992 33.8562 211.956 31.8436 209.903 29.8474C209.517 29.4717 209.371 29.1765 209.85 28.7364C210.623 28.0227 211.338 27.2499 212.069 26.4932C213.127 25.3877 214.175 24.2714 215.222 23.1552C215.196 22.9513 215.12 22.7795 215.023 22.6293C215.12 22.7849 215.196 22.9566 215.222 23.1552C216.974 21.5023 218.623 19.7581 220.267 17.9979C220.606 17.8262 220.826 17.531 221.079 17.268C222.599 15.6795 224.087 14.0642 225.624 12.4972C226.731 11.3702 227.848 11.3916 229.003 12.4167C229.514 12.8674 229.895 13.4524 230.502 13.7959C231.045 14.5794 231.787 15.1751 232.442 15.8513C233.699 17.15 234.967 18.4379 236.316 19.6454L236.359 19.6079L236.316 19.6508C236.815 20.2894 237.39 20.8583 238.024 21.3627C238.476 22.0228 239.104 22.5166 239.668 23.0693C240.066 23.4611 240.082 23.6758 239.668 24.0943C237.439 26.3322 235.247 28.6076 233.044 30.8723C232.856 30.8723 232.754 30.9636 232.77 31.1569C230.567 33.2604 228.439 35.4446 226.322 37.6397C223.518 40.4676 220.649 43.2422 218.027 46.2477C217.189 47.2083 216.899 48.4319 216.888 49.7091C216.866 52.1401 216.845 54.5765 216.84 57.0076C216.84 57.9039 216.872 58.7946 216.877 59.6909C216.877 59.9754 216.99 60.163 217.232 60.308M195.708 37.4678C195.816 37.5644 195.918 37.661 196.02 37.7577C195.918 37.6557 195.816 37.5591 195.708 37.4678ZM214.674 22.9942C214.766 23.08 214.852 23.1713 214.927 23.2625C214.852 23.1659 214.766 23.08 214.674 22.9942ZM243.456 16.2001C243.505 16.2216 243.553 16.2377 243.601 16.2484C243.548 16.2377 243.499 16.2216 243.456 16.2001Z" fill="white"/>
<path d="M231.081 80.2822C231.081 80.2822 231.065 80.2446 231.055 80.2393C231.065 80.2446 231.076 80.2609 231.081 80.2822Z" fill="white"/>
<path d="M189.846 52.0431C189.169 51.9198 188.498 51.7855 187.82 51.6782C186.08 51.4044 184.328 51.1844 182.566 51.0825C182.217 51.0611 181.937 51.0825 181.921 51.5493C181.83 54.2489 181.975 56.9106 183.049 59.4489C183.2 59.8031 183.367 59.932 183.753 59.9104C185.532 59.8248 187.283 60.066 189.024 60.3775C194.348 61.3272 199.442 63.0445 204.406 65.159C211.273 68.0839 217.403 72.2323 223.394 76.6113C225.037 77.8135 226.698 78.9887 228.353 80.1746C228.422 80.1586 228.492 80.1533 228.557 80.1586C228.492 80.1586 228.422 80.1586 228.353 80.1746C229.395 81.0656 230.512 81.8546 231.678 82.579C231.727 82.6113 231.775 82.638 231.829 82.6703C231.92 82.8206 232.049 82.9172 232.226 82.9439C232.269 83.0565 232.361 83.1101 232.473 83.1318C236.809 86.3032 241.537 88.2622 247.098 87.7577C247.034 87.6344 246.905 87.5861 246.813 87.4948C243.466 84.291 240.114 81.0816 236.772 77.8671C234.94 76.1068 233.134 74.3198 231.162 72.7098C231.109 72.6401 231.066 72.5542 230.996 72.4952C228.627 70.5203 226.225 68.583 223.753 66.7368C220.524 64.3274 217.097 62.2395 213.561 60.3399C208.726 57.7369 203.632 55.7407 198.399 54.0877" fill="white"/>
<path d="M236.039 82.5156C236.028 82.6015 235.974 82.6282 235.91 82.6392C235.974 82.6335 236.028 82.6069 236.039 82.5156Z" fill="white"/>
<path d="M233.801 82.6276C233.801 82.6276 233.801 82.6276 233.806 82.6276C233.817 82.6276 233.833 82.6383 233.844 82.6383C233.903 82.6436 233.914 82.6329 233.908 82.6113C234.349 82.6329 234.768 82.6006 235.107 82.7509C234.752 82.59 234.322 82.6596 233.908 82.6489C233.828 83.3413 233.634 83.5346 233.145 83.3144C233.629 83.5292 233.812 83.336 233.801 82.6223V82.6276Z" fill="white"/>
<path d="M231.1 80.3456C231.1 80.3456 231.089 80.303 231.078 80.2812C231.083 80.303 231.089 80.3242 231.1 80.3456Z" fill="white"/>
<path d="M231.023 81.833C231.055 81.833 231.087 81.833 231.125 81.833C231.093 81.833 231.055 81.833 231.023 81.833C230.964 81.833 230.915 81.817 230.867 81.79C230.91 81.8223 230.964 81.833 231.023 81.833Z" fill="white"/>
<path d="M220.717 65.4971C220.717 65.4971 220.701 65.5348 220.695 65.5511C220.695 65.5294 220.711 65.5134 220.717 65.4971Z" fill="white"/>
<path d="M239.22 51.9196C240.305 50.798 241.417 49.7138 242.518 48.6085C242.68 48.4473 242.825 48.2703 242.879 48.0557C242.879 47.8571 242.766 47.7335 242.653 47.6262C241.476 46.4724 240.283 45.3295 239.117 44.1649C238.811 43.859 238.634 43.9986 238.398 44.2346C237.259 45.3671 236.119 46.494 234.954 47.5996C234.572 47.9591 234.615 48.2433 234.954 48.5762C236.082 49.6818 237.216 50.7873 238.333 51.9036C238.645 52.2148 238.881 52.2738 239.225 51.9196H239.22Z" fill="white"/>
<path d="M230.978 85.8584C229.372 84.7208 227.771 83.5669 226.132 82.4777C224.977 81.7047 223.897 80.814 222.651 80.1752C220.254 78.4149 217.724 76.8588 215.215 75.2701C213.651 74.2828 212.082 73.2952 210.428 72.4582C208.639 71.3043 206.72 70.3867 204.808 69.4637C203.33 68.75 201.858 68.0146 200.284 67.5155C200.268 67.4835 200.241 67.4725 200.208 67.4941C200.047 67.4082 199.897 67.3062 199.73 67.2472C198.059 66.6355 196.378 66.0557 194.643 65.6588C192.595 65.1917 190.538 64.7678 188.426 64.7785H186.718C186.653 65.0631 186.82 65.2453 186.922 65.4439C187.443 66.4422 188.082 67.3652 188.748 68.2722C190.677 70.9125 192.998 72.9357 196.303 73.7784C200.139 74.755 203.728 76.408 207.177 78.3506C210.234 80.0733 213.125 82.0752 216.241 83.6849C217.933 84.5599 219.663 85.3379 221.554 85.6975C222.452 86.0733 223.408 86.1753 224.348 86.3309C226.653 86.7117 228.942 86.5778 231.22 86.1806C231.236 85.955 231.064 85.923 230.968 85.8531L230.978 85.8584Z" fill="white"/>
<path d="M226.727 29.696C227.189 30.1951 227.457 30.1521 227.871 29.712C228.543 28.9983 229.289 28.3489 229.94 27.6083C230.611 26.8409 231.444 26.2184 232.008 25.349C232.191 25.3168 232.271 25.1719 232.346 25.027L232.384 25.0109C232.465 25.0216 232.513 24.9894 232.524 24.9089C232.733 24.646 232.459 24.544 232.336 24.4205C230.788 22.8589 229.23 21.3079 227.688 19.7409C227.414 19.4618 227.248 19.5423 227.017 19.7838C225.641 21.2221 224.25 22.6442 222.869 24.0771C221.848 24.7533 221.859 24.7855 222.735 25.6549C224.083 26.9858 225.437 28.3113 226.727 29.7013V29.696Z" fill="white"/>
<path d="M80.0615 65.03C76.1051 65.03 73.019 63.9828 70.8032 61.8882C68.6273 59.7935 67.5391 56.8295 67.5391 52.9962C67.5391 50.625 68.1326 48.1945 69.3196 45.7048C70.5065 43.215 72.3068 40.824 74.7202 38.5319L75.9072 37.4056H84.5719L85.8183 38.4726C88.1922 40.4881 89.9133 42.5431 90.9815 44.6377C92.0498 46.7324 92.5839 49.0837 92.5839 51.692C92.5839 55.881 91.4762 59.1613 89.2604 61.5325C87.0844 63.8642 84.0182 65.03 80.0615 65.03ZM80.655 56.138C82.5541 56.138 84.0182 55.8022 85.0467 55.1303C86.115 54.4583 86.6491 53.5496 86.6491 52.4034C86.6491 52.0477 86.5702 51.6722 86.4117 51.2771C86.293 50.882 86.0361 50.4472 85.6402 49.9729C85.2447 49.4987 84.7105 48.9453 84.0378 48.3131C83.3654 47.6809 82.4948 46.9496 81.4265 46.1197L79.3493 44.5192H78.8745L77.1535 46.179C76.4811 46.8509 75.9072 47.4437 75.4324 47.9574C74.9576 48.4711 74.562 48.9652 74.2454 49.4394C73.9686 49.8742 73.7706 50.3087 73.6519 50.7435C73.5332 51.1784 73.4739 51.6327 73.4739 52.107C73.4739 53.2926 73.9884 54.2609 75.0169 55.0117C76.0852 55.7625 77.5689 56.138 79.468 56.138H80.655ZM84.3346 32.6632C83.3061 32.6632 82.4553 32.347 81.7826 31.7147C81.1497 31.0825 80.833 30.0748 80.833 28.6915C80.833 27.3083 81.1497 26.3005 81.7826 25.6682C82.4553 25.0359 83.3061 24.7197 84.3346 24.7197H85.5215C86.5503 24.7197 87.3812 25.0359 88.0141 25.6682C88.6868 26.3005 89.023 27.3083 89.023 28.6915C89.023 30.0748 88.6868 31.0825 88.0141 31.7147C87.3812 32.347 86.5503 32.6632 85.5215 32.6632H84.3346ZM74.9576 32.6632C73.9291 32.6632 73.0783 32.347 72.4056 31.7147C71.7727 31.0825 71.4561 30.0748 71.4561 28.6915C71.4561 27.3083 71.7727 26.3005 72.4056 25.6682C73.0783 25.0359 73.9291 24.7197 74.9576 24.7197H76.1446C77.1733 24.7197 78.0042 25.0359 78.6372 25.6682C79.3099 26.3005 79.6461 27.3083 79.6461 28.6915C79.6461 30.0748 79.3099 31.0825 78.6372 31.7147C78.0042 32.347 77.1733 32.6632 76.1446 32.6632H74.9576ZM90.2049 69.6538H92.5789C96.1795 69.6538 98.8104 68.9226 100.472 67.4605C102.174 65.9983 103.004 63.5678 102.965 60.169C102.965 59.26 102.905 58.3115 102.787 57.3236C102.668 56.296 102.51 55.2094 102.312 54.0632L101.065 46.179L107.534 45.1712L108.187 49.4987L117.98 47.8981V42.8001H124.508V51.0399C124.508 52.8183 124.864 54.0039 125.576 54.5967C126.288 55.1501 127.515 55.4267 129.256 55.4267H131.036V62.5402L129.256 64.3186H128.603C125.596 64.3186 123.262 63.7258 121.6 62.5402C119.938 61.3152 118.85 59.3391 118.336 56.6122L109.374 58.0942C109.414 58.4105 109.434 58.7265 109.434 59.0427C109.434 59.359 109.434 59.6355 109.434 59.8726C109.434 62.7181 109.077 65.287 108.365 67.579C107.653 69.8711 106.585 71.8273 105.16 73.4477C103.736 75.1075 101.976 76.3723 99.8786 77.2416C97.7819 78.111 95.3682 78.5458 92.6382 78.5458H90.2049V69.6538ZM125.279 77.0638C124.251 77.0638 123.4 76.7475 122.727 76.1153C122.095 75.4831 121.778 74.4753 121.778 73.092C121.778 71.7087 122.095 70.701 122.727 70.0688C123.4 69.4365 124.251 69.1203 125.279 69.1203H126.466C127.495 69.1203 128.326 69.4365 128.959 70.0688C129.632 70.701 129.968 71.7087 129.968 73.092C129.968 74.4753 129.632 75.4831 128.959 76.1153C128.326 76.7475 127.495 77.0638 126.466 77.0638H125.279ZM115.902 77.0638C114.874 77.0638 114.023 76.7475 113.35 76.1153C112.718 75.4831 112.401 74.4753 112.401 73.092C112.401 71.7087 112.718 70.701 113.35 70.0688C114.023 69.4365 114.874 69.1203 115.902 69.1203H117.089C118.118 69.1203 118.949 69.4365 119.582 70.0688C120.255 70.701 120.591 71.7087 120.591 73.092C120.591 74.4753 120.255 75.4831 119.582 76.1153C118.949 76.7475 118.118 77.0638 117.089 77.0638H115.902ZM129.252 57.205L131.032 55.4267H135.127C137.343 55.4267 139.321 55.4068 141.062 55.3674C142.842 55.2882 144.524 55.1303 146.106 54.8931C147.689 54.656 149.232 54.3003 150.735 53.8261C152.239 53.3519 153.841 52.6998 155.543 51.8699L157.739 50.8028V50.5064L148.243 48.4909L139.281 46.2976V50.7435H132.456V46.179C132.456 43.373 133.05 41.3181 134.237 40.0139C135.463 38.7098 137.323 38.0577 139.815 38.0577C140.132 38.0577 140.448 38.0775 140.765 38.117C141.121 38.1564 141.517 38.2157 141.952 38.2948C142.427 38.3739 142.981 38.4925 143.614 38.6505C144.247 38.8085 145.038 39.0062 145.988 39.2433L157.442 42.2073C159.024 42.6421 160.726 42.9779 162.546 43.215C164.366 43.4521 166.166 43.5707 167.946 43.5707H169.133V52.4627H164.504L158.925 56.2566C156.314 58.035 153.96 59.4577 151.863 60.5247C149.806 61.5523 147.847 62.3624 145.988 62.9552C144.128 63.5086 142.328 63.8838 140.587 64.0815C138.846 64.2395 137.026 64.3186 135.127 64.3186H129.252V57.205ZM149.727 77.0638C148.698 77.0638 147.847 76.7475 147.175 76.1153C146.542 75.4831 146.225 74.4753 146.225 73.092C146.225 71.7087 146.542 70.701 147.175 70.0688C147.847 69.4365 148.698 69.1203 149.727 69.1203H150.914C151.942 69.1203 152.773 69.4365 153.406 70.0688C154.079 70.701 154.415 71.7087 154.415 73.092C154.415 74.4753 154.079 75.4831 153.406 76.1153C152.773 76.7475 151.942 77.0638 150.914 77.0638H149.727Z" fill="white"/>
</g>
</g>
<defs>
<clipPath id="clip0_549_1311">
<rect width="273" height="107" fill="white"/>
</clipPath>
</defs>
</svg>
