<?xml version="1.0" standalone="no"?>
<!DOCTYPE svg PUBLIC "-//W3C//DTD SVG 20010904//EN"
 "http://www.w3.org/TR/2001/REC-SVG-20010904/DTD/svg10.dtd">
<svg version="1.0" xmlns="http://www.w3.org/2000/svg"
 width="700.000000pt" height="268.000000pt" viewBox="0 0 700.000000 268.000000"
 preserveAspectRatio="xMidYMid meet">

<g transform="translate(0.000000,268.000000) scale(0.100000,-0.100000)"
fill="#000000" stroke="none">
<path d="M5400 2271 c-34 -48 -50 -97 -50 -151 0 -45 4 -55 38 -93 35 -38 41
-52 60 -152 31 -157 50 -274 58 -350 l7 -67 -126 4 c-120 3 -127 4 -169 33
-31 21 -52 48 -73 92 -38 78 -65 106 -127 133 -122 52 -131 53 -913 60 -672 6
-775 10 -775 29 0 16 164 104 265 142 102 39 397 119 438 119 9 0 26 15 37 33
23 37 55 116 49 121 -6 6 -189 -28 -287 -54 -122 -31 -273 -92 -350 -141 -141
-91 -278 -264 -270 -341 2 -20 13 -38 31 -52 28 -21 36 -21 805 -26 826 -6
810 -5 927 -54 39 -16 85 -61 85 -82 0 -12 -192 -14 -1163 -14 -1048 0 -1168
2 -1211 16 -67 23 -112 72 -133 144 -10 33 -23 60 -29 60 -11 0 -57 -94 -69
-140 -9 -39 22 -111 68 -158 l42 -43 -24 -44 c-33 -62 -129 -151 -198 -182
-51 -24 -71 -27 -163 -28 -58 0 -122 4 -143 9 -35 8 -39 7 -35 -10 2 -13 42
-39 121 -79 107 -54 125 -60 192 -63 l74 -4 50 47 c58 54 141 175 173 252 l22
53 1206 0 1206 0 24 58 c13 31 24 58 25 59 1 2 24 -19 53 -47 65 -63 98 -71
264 -68 l133 3 29 85 c37 110 43 215 22 380 -12 87 -14 126 -6 128 6 2 29 39
50 83 l40 79 -100 66 c-109 72 -140 106 -140 153 0 39 -13 39 -40 2z"/>
<path d="M501 2244 c-65 -54 -26 -154 60 -154 29 0 43 6 63 31 35 41 34 83 -3
120 -37 37 -79 38 -120 3z"/>
<path d="M6351 2244 c-63 -53 -26 -154 56 -154 86 1 124 91 64 151 -37 37 -79
38 -120 3z"/>
<path d="M1897 2239 c-8 -11 -29 -53 -47 -94 l-32 -73 32 -223 c25 -180 58
-479 60 -546 0 -7 6 -13 14 -13 9 0 27 34 46 88 53 141 52 230 -6 647 -35 258
-36 260 -67 214z"/>
<path d="M5896 2238 c-8 -13 -29 -53 -47 -91 l-33 -67 27 -193 c37 -258 57
-432 57 -488 0 -58 10 -109 21 -109 29 0 89 188 89 279 0 70 -20 261 -45 446
-36 260 -39 269 -69 223z"/>
<path d="M1053 1876 c-22 -8 -55 -23 -71 -35 -40 -28 -92 -110 -99 -158 l-6
-38 24 21 c53 48 86 57 188 51 134 -7 145 -13 85 -48 -158 -92 -303 -295 -321
-449 -14 -116 57 -211 187 -251 67 -21 94 -24 250 -24 l175 0 65 32 c36 18 92
54 125 80 l60 48 -265 5 c-241 5 -270 8 -325 28 -118 43 -185 111 -185 185 0
34 6 46 40 78 91 87 245 172 369 204 35 9 107 19 160 23 l96 7 37 75 c20 41
37 78 38 83 0 4 -17 7 -37 7 -21 0 -81 9 -133 21 -356 76 -378 79 -457 55z"/>
<path d="M1228 1423 c-23 -26 -48 -79 -48 -101 0 -14 22 -33 69 -61 38 -22 72
-41 75 -41 13 0 66 95 66 116 0 17 -17 32 -71 63 -39 23 -72 41 -73 41 -2 0
-10 -8 -18 -17z"/>
<path d="M499 861 c-58 -58 -24 -151 55 -151 48 0 65 8 81 41 23 43 18 77 -14
110 -40 39 -82 39 -122 0z"/>
<path d="M6349 861 c-59 -60 -24 -151 58 -151 86 1 124 91 64 151 -40 39 -82
39 -122 0z"/>
<path d="M2716 502 c-3 -2 -48 -4 -101 -3 l-95 2 0 -46 c0 -50 20 -59 30 -14
3 13 12 24 20 24 11 0 16 -16 18 -63 3 -57 1 -64 -18 -69 -11 -3 -20 -12 -20
-19 0 -10 15 -14 55 -14 42 0 55 3 55 15 0 8 -7 15 -15 15 -12 0 -15 14 -15
70 0 53 3 70 14 70 7 0 16 -14 20 -31 8 -39 30 -33 34 9 2 22 7 29 18 25 21
-8 20 -139 -2 -147 -27 -10 -5 -26 37 -26 28 0 39 4 39 15 0 8 -5 15 -11 15
-6 0 -9 17 -7 43 3 37 6 42 28 42 22 0 25 -5 28 -39 2 -28 -1 -42 -13 -48 -25
-14 -7 -28 36 -28 28 0 39 4 39 15 0 8 -7 15 -15 15 -11 0 -15 12 -15 49 0 57
-16 75 -60 69 -27 -4 -30 -2 -30 23 0 20 -6 28 -25 31 -13 3 -27 3 -29 0z"/>
<path d="M3174 475 c-32 -32 -34 -110 -3 -148 18 -24 26 -27 80 -25 58 2 59 2
59 29 0 18 7 32 20 39 35 19 22 30 -35 30 -42 0 -55 -3 -55 -15 0 -8 7 -15 16
-15 23 0 13 -34 -12 -38 -49 -7 -73 72 -36 118 21 26 57 21 67 -11 11 -35 35
-22 35 19 l0 37 -56 2 c-47 2 -59 -1 -80 -22z"/>
<path d="M4427 493 c-11 -10 -8 -143 3 -143 6 0 10 32 10 75 0 75 -1 81 -13
68z"/>
<path d="M4477 493 c-11 -10 -8 -143 3 -143 5 0 10 26 12 57 l3 57 35 -54 c50
-77 60 -76 60 9 0 85 -18 105 -22 24 l-3 -58 -37 58 c-40 60 -41 61 -51 50z"/>
<path d="M4620 423 c0 -83 16 -92 22 -13 l3 45 34 -53 c18 -28 37 -52 42 -52
5 0 9 34 9 76 0 47 -4 73 -10 69 -5 -3 -10 -30 -10 -58 l0 -52 -38 57 c-20 32
-40 58 -44 58 -5 0 -8 -35 -8 -77z"/>
<path d="M4780 480 c-26 -26 -27 -90 -2 -113 45 -41 112 -5 112 58 0 42 -29
75 -65 75 -14 0 -34 -9 -45 -20z m78 -12 c20 -20 15 -75 -9 -91 -53 -38 -99
36 -56 91 12 15 49 16 65 0z"/>
<path d="M4908 495 c-9 -9 44 -146 55 -142 11 3 56 111 56 135 2 29 -19 -2
-35 -53 -10 -31 -21 -52 -25 -48 -3 5 -14 32 -24 61 -17 54 -18 55 -27 47z"/>
<path d="M5044 430 c-15 -39 -24 -73 -21 -76 4 -4 11 5 16 20 15 37 63 37 80
0 6 -15 15 -24 18 -20 8 8 -46 146 -57 146 -5 0 -21 -32 -36 -70z m56 -7 c0
-7 -9 -13 -20 -13 -22 0 -23 3 -13 39 6 23 7 23 20 6 7 -11 13 -25 13 -32z"/>
<path d="M5130 490 c0 -5 9 -10 20 -10 18 0 20 -7 20 -59 0 -81 18 -88 22 -9
3 57 5 63 26 66 44 7 21 22 -33 22 -30 0 -55 -4 -55 -10z"/>
<path d="M5260 426 c0 -44 4 -76 10 -76 6 0 10 30 10 69 0 39 -4 73 -10 76 -6
4 -10 -22 -10 -69z"/>
<path d="M5325 475 c-56 -55 -8 -140 68 -121 25 6 47 43 47 77 0 26 -43 69
-70 69 -11 0 -32 -11 -45 -25z m86 -19 c24 -52 -17 -109 -61 -86 -25 14 -36
55 -21 86 8 18 18 24 41 24 23 0 33 -6 41 -24z"/>
<path d="M5467 493 c-11 -10 -8 -143 3 -143 6 0 10 26 10 58 l0 57 38 -57 c20
-32 42 -56 47 -55 12 4 19 114 8 136 -4 10 -9 -6 -13 -44 l-5 -60 -38 58 c-40
61 -40 61 -50 50z"/>
<path d="M3914 465 c-4 -8 -16 -15 -28 -15 -28 0 -46 -18 -46 -45 0 -12 -6
-27 -12 -33 -10 -10 -10 -17 0 -32 7 -12 8 -21 2 -25 -17 -10 -11 -44 9 -55
25 -13 87 -13 112 0 21 12 25 50 7 68 -7 7 -31 12 -54 12 -24 0 -46 5 -49 10
-4 6 12 10 40 10 39 0 47 4 57 25 9 20 8 28 -5 43 -20 22 -23 39 -4 23 15 -12
27 -5 27 16 0 18 -49 17 -56 -2z m4 -58 c4 -20 -25 -34 -39 -20 -14 14 1 45
20 41 9 -2 17 -11 19 -21z m17 -112 c0 -5 -17 -11 -37 -13 -30 -3 -38 0 -38
13 0 13 8 16 38 13 20 -2 37 -7 37 -13z"/>
<path d="M2927 432 c-26 -28 -22 -97 5 -116 41 -29 108 -14 108 24 0 24 -13
26 -30 5 -17 -20 -54 -15 -58 8 -3 14 4 17 48 17 52 0 52 0 46 28 -4 15 -14
33 -23 40 -25 18 -77 15 -96 -6z m71 -14 c19 -19 14 -28 -18 -28 -41 0 -40 33
1 39 3 1 10 -4 17 -11z"/>
<path d="M3383 443 c-21 -8 -15 -43 7 -43 12 0 20 7 20 16 0 9 7 14 18 12 31
-6 18 -32 -21 -41 -27 -7 -39 -15 -43 -33 -11 -44 6 -51 131 -52 111 0 143 7
110 26 -12 6 -15 20 -13 48 3 33 6 39 27 39 13 0 26 6 28 12 7 19 -26 28 -48
14 -12 -7 -19 -7 -19 -1 0 5 -13 10 -30 10 -20 0 -30 -5 -30 -15 0 -8 7 -15
15 -15 23 0 21 -86 -2 -92 -34 -9 -43 2 -43 51 0 26 -5 52 -12 59 -12 12 -71
15 -95 5z m65 -90 c-4 -23 -48 -31 -48 -9 0 13 14 21 43 25 5 0 7 -7 5 -16z"/>
<path d="M3673 443 c-21 -8 -15 -43 7 -43 12 0 20 7 20 16 0 9 7 14 18 12 31
-6 18 -32 -21 -41 -27 -7 -39 -15 -43 -33 -10 -40 10 -53 82 -52 64 1 91 12
60 24 -11 4 -16 20 -16 53 0 26 -5 52 -12 59 -12 12 -71 15 -95 5z m65 -90
c-4 -23 -48 -31 -48 -9 0 13 14 21 43 25 5 0 7 -7 5 -16z"/>
<path d="M4007 432 c-23 -26 -22 -94 1 -115 35 -32 112 -15 112 23 0 24 -13
26 -30 5 -16 -19 -44 -19 -60 0 -15 18 -5 23 55 27 36 3 40 5 37 28 -1 14 -10
31 -19 38 -25 18 -77 15 -96 -6z m71 -14 c19 -19 14 -28 -18 -28 -41 0 -40 33
1 39 3 1 10 -4 17 -11z"/>
<path d="M4420 225 l0 -78 46 6 c54 6 63 13 70 58 8 48 -18 79 -74 86 l-42 6
0 -78z m84 39 c34 -33 12 -94 -34 -94 -30 0 -30 1 -30 55 0 52 2 55 24 55 14
0 32 -7 40 -16z"/>
<path d="M4567 293 c-11 -10 -8 -131 3 -138 6 -4 10 22 10 69 0 76 -1 82 -13
69z"/>
<path d="M4626 287 c-30 -22 -16 -50 32 -65 30 -10 42 -19 42 -33 0 -25 -57
-27 -76 -1 -12 15 -13 15 -14 1 0 -25 25 -41 61 -37 65 6 64 61 -1 82 -20 6
-35 18 -35 26 0 22 44 25 60 3 12 -15 14 -15 15 -2 0 36 -49 51 -84 26z"/>
<path d="M4730 290 c0 -5 11 -10 25 -10 24 0 25 -2 25 -65 0 -37 4 -65 10 -65
6 0 10 28 10 65 0 58 2 65 20 65 11 0 20 5 20 10 0 6 -25 10 -55 10 -30 0 -55
-4 -55 -10z"/>
<path d="M4867 293 c-11 -10 -8 -143 3 -143 6 0 10 14 10 31 0 28 2 30 33 27
27 -2 33 -8 35 -30 2 -16 8 -28 13 -28 12 0 12 37 -1 61 -7 13 -7 19 0 19 18
0 11 49 -9 60 -22 11 -74 14 -84 3z m78 -38 c0 -15 -8 -21 -32 -23 -30 -3 -33
-1 -33 23 0 24 3 26 33 23 24 -2 32 -8 32 -23z"/>
<path d="M5000 226 c0 -44 4 -76 10 -76 6 0 10 30 10 69 0 39 -4 73 -10 76 -6
4 -10 -22 -10 -69z"/>
<path d="M5067 283 c-33 -37 -30 -101 7 -125 32 -22 96 5 96 40 0 20 -17 13
-23 -8 -4 -15 -14 -20 -36 -20 -39 0 -60 36 -45 78 12 34 61 44 81 16 7 -10
16 -15 20 -11 12 13 -30 47 -57 47 -15 0 -34 -8 -43 -17z"/>
<path d="M5185 290 c-4 -6 5 -10 19 -10 25 0 26 -2 26 -65 0 -37 4 -65 10 -65
6 0 10 28 10 65 0 58 2 65 20 65 11 0 20 5 20 10 0 6 -22 10 -49 10 -28 0 -53
-4 -56 -10z"/>
</g>
</svg>
