<svg width="51" height="55" viewBox="0 0 51 55" fill="none" xmlns="http://www.w3.org/2000/svg">
<circle cx="25.5" cy="25.5" r="25.5" fill="#E5F9F6"/>
<path d="M17.2689 29.5852C17.1873 29.3917 17.1085 29.1955 17.0353 28.9978C15.2385 24.217 15.9655 18.3733 20.105 15.0562C21.2467 14.1412 22.3013 13.3644 23.6627 12.7756C24.0856 12.5932 24.5624 12.419 24.9964 12.5752C25.4304 12.7314 25.6723 13.3865 25.3033 13.6616C26.1633 13.0556 27.122 12.6034 28.1367 12.325C28.742 12.1606 29.4082 12.0624 29.9832 12.3154C30.5582 12.5683 30.959 13.2912 30.6743 13.8495C31.5036 13.5469 32.395 13.287 33.2561 13.4736C34.554 13.75 35.5671 15.685 36.1241 16.7907C36.906 18.3822 37.3135 20.1315 37.3155 21.9047C37.3307 23.3753 36.9257 24.8155 36.4862 26.217C35.8698 28.181 35.1427 30.174 33.7744 31.7124C32.3785 33.2645 30.8056 33.6971 28.8139 33.8174C27.6529 33.8878 26.4947 34.0026 25.3364 34.1048C24.749 34.1574 24.1602 34.2099 23.5714 34.2431C23.0462 34.2748 22.5666 34.5416 22.0373 34.6121C21.5857 34.6884 21.1216 34.6131 20.7173 34.3979C20.4205 34.2008 20.1601 33.9539 19.9475 33.6681C19.3915 33.0335 18.8706 32.3691 18.387 31.6778C17.9497 31.0168 17.5753 30.3162 17.2689 29.5852Z" fill="#00214E"/>
<circle cx="19.0325" cy="28.5" r="2.34964" fill="#F2A196"/>
<ellipse cx="19.8424" cy="28.3618" rx="2.21143" ry="2.21143" fill="#E88870"/>
<path d="M41.3665 45.5259C32.1272 52.64 19.2399 52.5831 10.0638 45.3877L16.7893 42.235C17.1096 42.0845 17.417 41.9079 17.7084 41.7071C17.7969 41.6462 17.8853 41.5827 17.9696 41.5163C18.7016 40.9563 19.3041 40.2449 19.736 39.4307C20.2889 38.3872 20.4713 37.2344 20.4796 36.0596C20.4796 35.8191 20.4796 35.5773 20.4713 35.3368C20.4589 34.7839 20.434 34.2311 20.4285 33.6865C20.4229 33.2488 20.4183 32.8107 20.4146 32.3721L20.6911 32.5103L21.4098 32.8821L21.7429 32.9387L25.5963 33.5939L29.8975 34.3264L30.0274 38.7493L30.0772 40.4369L30.091 40.8971V40.9427L31.7634 41.6228L41.3665 45.5259Z" fill="#F2A196"/>
<path d="M30.0786 40.4627L29.8657 40.4848C27.7857 40.6672 25.7305 39.9269 24.2445 38.46L20.4602 34.0496C20.4478 33.6487 20.4326 33.9666 20.4284 33.5644C20.4229 33.1267 20.4183 32.6886 20.4146 32.25L20.6911 32.3882L21.4098 32.76L21.7429 32.8167L25.5963 33.4718L29.8975 34.2044L30.0274 38.6272L30.0786 40.4627Z" fill="#E88870"/>
<path d="M21.9391 23.9775C21.8195 24.7082 21.7732 25.449 21.8009 26.1889C21.6765 26.1627 19.3918 25.5531 19.4084 25.7439C19.5287 27.1758 20.2902 32.761 20.4354 34.1749L25.4691 37.8874C27.1418 39.1371 29.2789 39.5889 31.3142 39.123C32.1255 38.9323 32.6397 38.8065 33.006 38.1555C33.7136 36.9116 35.451 32.656 35.5643 29.654C35.5961 28.8012 35.5754 27.502 35.0501 26.7763C34.7944 26.4239 34.6631 26.4156 34.7557 25.918C34.8511 25.3983 34.9879 24.8856 35.1027 24.3686C35.3791 23.1164 35.4828 21.9554 35.2063 20.6728C35.017 19.7979 34.1739 18.2236 34.1739 18.2236C34.0619 18.8608 33.0681 19.82 32.1186 20.0121C29.9307 20.4544 28.1477 19.4786 26.0372 19.3722C25.1485 19.3266 24.2114 19.5353 23.5493 20.1268C23.0407 20.5788 22.7325 21.2132 22.4948 21.8518C22.2399 22.5403 22.0538 23.2523 21.9391 23.9775Z" fill="#F2A196"/>
<path d="M30.8318 26.1895C30.8691 26.7269 30.9618 27.2591 31.1083 27.7775C31.2465 28.235 31.4552 28.5184 31.733 28.9123C31.8276 29.0429 31.9104 29.1817 31.9804 29.3269C32.3453 30.1479 31.8602 31.0587 30.9369 31.0587H30.3661" stroke="#00214E" stroke-width="0.5"/>
<path d="M26.8195 32.4131C27.4834 33.1549 28.3939 33.6308 29.382 33.7524" stroke="#00214E" stroke-width="0.5"/>
<path d="M24.239 24.6542C25.5184 24.3889 26.8346 24.3514 28.127 24.5436" stroke="#00214E" stroke-width="0.5"/>
<path d="M32.4006 24.6686C33.1909 24.4848 34.0055 24.4279 34.8138 24.5" stroke="#00214E" stroke-width="0.5"/>
<path d="M41.3665 45.5252C32.1272 52.6393 19.2399 52.5824 10.0638 45.387L16.7893 42.2343C17.1096 42.0838 17.417 41.9072 17.7084 41.7064C17.7969 41.6455 17.8853 41.582 17.9696 41.5156C21.2246 43.8321 25.6668 45.293 29.5091 43.564C30.4241 43.1493 31.2645 42.4804 31.762 41.6207L41.3665 45.5252Z" fill="#00C8A4"/>
<path d="M28.5237 30.0859C28.3174 30.1915 28.2188 30.4318 28.2916 30.6518C28.3644 30.8718 28.5867 31.006 28.8153 30.9677" stroke="#00214E" stroke-width="0.5"/>
<path d="M26.3827 25.708C27.2258 25.708 27.2258 27.0045 26.3827 27.0114H26.344C25.5009 27.0114 25.5009 25.7149 26.344 25.708H26.3827Z" fill="#00214E"/>
<path d="M33.328 25.708C34.1103 25.708 34.1103 26.9119 33.328 26.9174H33.2934C32.5112 26.9174 32.5112 25.7149 33.2934 25.708H33.3294H33.328Z" fill="#00214E"/>
</svg>
