<svg width="273" height="107" viewBox="0 0 273 107" fill="none" xmlns="http://www.w3.org/2000/svg">
<g clip-path="url(#clip0_514_4605)">
<path d="M243.091 54.3889C239.147 56.7127 235.284 59.1437 232.055 62.4441C230.454 64.0808 229.116 65.9055 228.16 67.993C228.047 68.2399 227.832 68.4815 228.171 68.782C230.169 70.5423 232.152 72.3187 234.135 74.095C234.349 74.2882 234.473 74.4329 234.64 74.0037C235.102 72.8231 235.762 71.7442 236.536 70.7409C239.126 67.3759 242.425 64.8429 246.046 62.691C250.075 60.2973 254.272 58.2204 258.333 55.886C260.886 54.4209 263.206 52.6716 264.996 50.3102C267.209 47.3963 268.214 44.1495 267.424 40.5002C266.833 37.7686 265.339 35.5362 263.335 33.6256C262.508 32.8365 261.627 32.1068 260.574 31.5917C260.45 31.8653 260.558 32.0745 260.601 32.2947C261.149 35.1496 261.073 37.9616 259.902 40.6612C258.554 43.7683 256.265 46.0921 253.562 48.04C250.242 50.4338 246.605 52.3174 243.086 54.3942L243.091 54.3889Z" fill="url(#paint0_linear_514_4605)"/>
<path d="M272.481 49.993C272.218 50.5781 272.019 51.0826 271.772 51.5708C269.918 55.2793 266.963 57.9573 263.573 60.2111C260.43 62.2986 257.04 63.9463 253.72 65.712C250.308 67.5203 246.912 69.3559 244.129 72.0982C242.453 73.7509 240.943 75.5272 239.82 77.6097C239.622 77.9799 239.546 78.2535 239.928 78.6077C241.54 80.1104 243.119 81.6505 244.704 83.1799C244.919 83.3895 245.043 83.4538 245.279 83.1479C247.885 79.8046 251.125 77.2072 254.821 75.1517C257.771 73.5096 260.86 72.1412 263.799 70.4775C271.552 66.0768 274.238 57.6567 272.487 49.993H272.481Z" fill="url(#paint1_linear_514_4605)"/>
<path d="M224.02 64.8376C224.17 64.9715 224.31 65.1218 224.471 65.2454C224.578 65.3257 224.734 65.433 224.831 65.401C225.013 65.3474 224.965 65.1381 224.965 64.9822C224.949 61.5315 224.954 58.0808 224.911 54.6248C224.89 52.7142 224.927 50.8306 225.921 49.1133C226.378 48.5605 226.829 48.0024 227.286 47.4496C227.732 47.16 228.06 46.7575 228.371 46.3387C229.473 45.2334 230.58 44.1225 231.681 43.017C233.185 41.4822 234.695 39.9578 236.183 38.4071C236.764 37.8006 237.462 37.2962 237.881 36.5448C237.94 36.5178 238.01 36.5018 238.053 36.4588C238.723 35.7899 239.398 35.781 240.079 36.4322C243.41 39.7272 246.746 43.0223 250.072 46.3227C250.308 46.5589 250.518 46.5426 250.808 46.4516C253.908 45.4694 255.88 42.9687 255.928 39.5663C256.003 34.1084 255.944 28.6452 255.944 23.1874C255.955 20.0211 255.955 16.8548 255.977 13.6885C255.977 13.2216 255.735 13.2431 255.418 13.2431C253.371 13.2485 251.329 13.2699 249.282 13.2431C248.772 13.2377 248.68 13.4202 248.686 13.8764C248.707 15.4112 248.712 16.9514 248.653 18.4863C248.637 18.9585 248.954 19.6884 248.503 19.8601C248.116 20.005 247.762 19.2966 247.396 18.9639C246.177 17.8315 245.113 16.5382 243.845 15.4488C243.759 15.4756 243.684 15.481 243.614 15.4702C243.684 15.4756 243.759 15.4702 243.845 15.4488C242.781 14.3003 241.712 13.1572 240.535 12.1215C240.503 11.982 240.428 11.8746 240.277 11.837L240.256 11.821C239.536 11.0321 238.87 10.1841 238.075 9.47575C236.833 8.36488 235.668 7.17351 234.529 5.97674C232.874 4.23797 231.117 2.60116 229.467 0.86239C229.027 0.400865 228.516 0.0413029 227.802 0.00373675C226.808 -0.049929 226.174 0.481364 225.578 1.15219C223.402 3.59935 221.064 5.8855 218.813 8.26292C217.459 9.69044 216.116 11.1179 214.768 12.5454C213.177 14.2091 211.587 15.8727 210.002 17.5364C209.169 18.3897 208.32 19.2161 207.514 20.0909C203.544 24.4002 199.434 28.5808 195.421 32.8526C194.899 33.4107 194.217 33.8348 193.905 34.5752C193.948 34.7042 194.002 34.8275 194.067 34.9454C194.007 34.8275 193.954 34.7095 193.905 34.5752C192.842 35.4016 192.009 36.4428 191.171 37.4841C190.289 38.5627 189.865 39.8076 189.86 41.187C189.838 44.2941 189.983 46.7575 189.972 49.8647C193.438 50.7663 193.287 51.1152 197.849 52.3547C197.908 49.1456 197.725 46.2421 197.972 43.033C197.902 43.033 197.827 43.0383 197.758 43.0436C197.752 43.5858 197.747 44.1279 197.741 44.6697C197.741 47.3047 197.666 48.2816 197.672 50.9166C197.672 48.2816 197.747 47.3047 197.741 44.6697C197.747 44.1279 197.752 43.5858 197.758 43.0436C197.827 43.0436 197.902 43.0383 197.972 43.033C198.263 42.2119 198.601 41.4176 199.16 40.7308C199.246 40.6609 199.337 40.5912 199.412 40.516C200.927 38.9545 202.464 37.4141 203.942 35.8151C204.387 35.3319 204.624 35.5035 204.978 35.8577C206.531 37.4195 208.106 38.9545 209.647 40.5216C210.555 41.4446 211.114 42.5392 211.297 43.8433C211.447 44.9219 211.351 45.9955 211.383 47.0687C211.399 47.6269 211.383 48.1903 211.383 48.7055C211.603 48.7807 211.668 48.7108 211.732 48.6465C214.434 45.8129 217.132 42.9793 219.845 40.1564C220.135 39.8559 219.915 39.7326 219.737 39.5553C218.502 38.3265 217.271 37.0922 216.036 35.8687C213.994 33.8562 211.958 31.8436 209.905 29.8474C209.519 29.4717 209.373 29.1765 209.852 28.7364C210.625 28.0227 211.34 27.2499 212.071 26.4932C213.129 25.3877 214.177 24.2714 215.224 23.1552C215.198 22.9513 215.122 22.7795 215.025 22.6293C215.122 22.7849 215.198 22.9566 215.224 23.1552C216.976 21.5023 218.625 19.7581 220.269 17.9979C220.608 17.8262 220.828 17.531 221.081 17.268C222.601 15.6795 224.089 14.0642 225.626 12.4972C226.733 11.3702 227.85 11.3916 229.005 12.4167C229.516 12.8674 229.897 13.4524 230.504 13.7959C231.047 14.5794 231.789 15.1751 232.444 15.8513C233.701 17.15 234.969 18.4379 236.318 19.6454L236.361 19.6079L236.318 19.6508C236.817 20.2894 237.392 20.8583 238.026 21.3627C238.478 22.0228 239.106 22.5166 239.67 23.0693C240.068 23.4611 240.084 23.6758 239.67 24.0943C237.441 26.3322 235.249 28.6076 233.046 30.8723C232.858 30.8723 232.756 30.9636 232.772 31.1569C230.569 33.2604 228.441 35.4446 226.324 37.6397C223.52 40.4676 220.651 43.2422 218.029 46.2477C217.191 47.2083 216.901 48.4319 216.89 49.7091C216.868 52.1401 216.847 54.5765 216.842 57.0076C216.842 57.9039 216.874 58.7946 216.879 59.6909C216.879 59.9754 216.992 60.163 217.234 60.308M195.71 37.4678C195.818 37.5644 195.92 37.661 196.022 37.7577C195.92 37.6557 195.818 37.5591 195.71 37.4678ZM214.676 22.9942C214.768 23.08 214.854 23.1713 214.929 23.2625C214.854 23.1659 214.768 23.08 214.676 22.9942ZM243.458 16.2001C243.507 16.2216 243.555 16.2377 243.603 16.2484C243.55 16.2377 243.501 16.2216 243.458 16.2001Z" fill="url(#paint2_linear_514_4605)"/>
<path d="M231.081 80.2817C231.081 80.2817 231.065 80.2441 231.055 80.2388C231.065 80.2441 231.076 80.2604 231.081 80.2817Z" fill="url(#paint3_linear_514_4605)"/>
<path d="M189.848 52.0429C189.171 51.9196 188.5 51.7853 187.822 51.678C186.082 51.4042 184.33 51.1842 182.568 51.0823C182.219 51.0609 181.939 51.0823 181.923 51.5491C181.832 54.2487 181.977 56.9104 183.051 59.4487C183.202 59.8029 183.369 59.9318 183.755 59.9102C185.534 59.8246 187.285 60.0658 189.026 60.3773C194.35 61.327 199.444 63.0443 204.408 65.1588C211.275 68.0837 217.405 72.2321 223.396 76.6111C225.039 77.8133 226.7 78.9885 228.355 80.1744C228.424 80.1584 228.494 80.1531 228.559 80.1584C228.494 80.1584 228.424 80.1584 228.355 80.1744C229.397 81.0654 230.514 81.8544 231.68 82.5788C231.729 82.6111 231.777 82.6378 231.831 82.6701C231.922 82.8204 232.051 82.917 232.228 82.9437C232.271 83.0563 232.363 83.1099 232.475 83.1316C236.811 86.303 241.539 88.262 247.1 87.7575C247.036 87.6342 246.907 87.5859 246.815 87.4946C243.468 84.2908 240.116 81.0814 236.774 77.8669C234.942 76.1066 233.136 74.3196 231.164 72.7096C231.111 72.6399 231.068 72.554 230.998 72.495C228.629 70.5201 226.227 68.5828 223.755 66.7366C220.526 64.3272 217.099 62.2393 213.563 60.3397C208.728 57.7367 203.634 55.7405 198.401 54.0875" fill="url(#paint4_linear_514_4605)"/>
<path d="M236.043 82.5154C236.032 82.6013 235.978 82.628 235.914 82.639C235.978 82.6333 236.032 82.6067 236.043 82.5154Z" fill="url(#paint5_linear_514_4605)"/>
<path d="M233.804 82.628C233.804 82.628 233.804 82.628 233.809 82.628C233.82 82.628 233.836 82.6387 233.847 82.6387C233.906 82.644 233.917 82.6333 233.911 82.6117C234.352 82.6333 234.771 82.601 235.11 82.7513C234.755 82.5904 234.325 82.66 233.911 82.6493C233.831 83.3417 233.637 83.535 233.148 83.3148C233.632 83.5296 233.815 83.3364 233.804 82.6227V82.628Z" fill="url(#paint6_linear_514_4605)"/>
<path d="M231.102 80.3461C231.102 80.3461 231.091 80.3034 231.08 80.2817C231.085 80.3034 231.091 80.3247 231.102 80.3461Z" fill="url(#paint7_linear_514_4605)"/>
<path d="M231.025 81.833C231.057 81.833 231.089 81.833 231.127 81.833C231.095 81.833 231.057 81.833 231.025 81.833C230.966 81.833 230.917 81.817 230.869 81.79C230.912 81.8223 230.966 81.833 231.025 81.833Z" fill="url(#paint8_linear_514_4605)"/>
<path d="M220.721 65.4973C220.721 65.4973 220.705 65.535 220.699 65.5513C220.699 65.5296 220.715 65.5136 220.721 65.4973Z" fill="url(#paint9_linear_514_4605)"/>
<path d="M239.224 51.9196C240.309 50.798 241.421 49.7138 242.522 48.6085C242.684 48.4473 242.829 48.2703 242.883 48.0557C242.883 47.8571 242.77 47.7335 242.657 47.6262C241.48 46.4724 240.287 45.3295 239.121 44.1649C238.815 43.859 238.638 43.9986 238.402 44.2346C237.263 45.3671 236.123 46.494 234.958 47.5996C234.576 47.9591 234.619 48.2433 234.958 48.5762C236.086 49.6818 237.22 50.7873 238.337 51.9036C238.649 52.2148 238.885 52.2738 239.229 51.9196H239.224Z" fill="url(#paint10_linear_514_4605)"/>
<path d="M230.978 85.8584C229.372 84.7208 227.771 83.5669 226.132 82.4777C224.977 81.7047 223.897 80.814 222.651 80.1752C220.254 78.4149 217.724 76.8588 215.215 75.2701C213.651 74.2828 212.082 73.2952 210.428 72.4582C208.639 71.3043 206.72 70.3867 204.808 69.4637C203.33 68.75 201.858 68.0146 200.284 67.5155C200.268 67.4835 200.241 67.4725 200.208 67.4941C200.047 67.4082 199.897 67.3062 199.73 67.2472C198.059 66.6355 196.378 66.0557 194.643 65.6588C192.595 65.1917 190.538 64.7678 188.426 64.7785H186.718C186.653 65.0631 186.82 65.2453 186.922 65.4439C187.443 66.4422 188.082 67.3652 188.748 68.2722C190.677 70.9125 192.998 72.9357 196.303 73.7784C200.139 74.755 203.728 76.408 207.177 78.3506C210.234 80.0733 213.125 82.0752 216.241 83.6849C217.933 84.5599 219.663 85.3379 221.554 85.6975C222.452 86.0733 223.408 86.1753 224.348 86.3309C226.653 86.7117 228.942 86.5778 231.22 86.1806C231.236 85.955 231.064 85.923 230.968 85.8531L230.978 85.8584Z" fill="url(#paint11_linear_514_4605)"/>
<path d="M226.727 29.6965C227.189 30.1956 227.457 30.1526 227.871 29.7125C228.543 28.9988 229.289 28.3494 229.94 27.6088C230.611 26.8414 231.444 26.2189 232.008 25.3495C232.191 25.3173 232.271 25.1724 232.346 25.0275L232.384 25.0114C232.465 25.0221 232.513 24.9899 232.524 24.9094C232.733 24.6465 232.459 24.5445 232.336 24.421C230.788 22.8594 229.23 21.3084 227.688 19.7414C227.414 19.4623 227.248 19.5428 227.017 19.7843C225.641 21.2226 224.25 22.6447 222.869 24.0776C221.848 24.7538 221.859 24.786 222.735 25.6554C224.083 26.9863 225.437 28.3118 226.727 29.7018V29.6965Z" fill="url(#paint12_linear_514_4605)"/>
<path d="M80.0634 65.03C76.107 65.03 73.0209 63.9828 70.8051 61.8882C68.6292 59.7935 67.541 56.8295 67.541 52.9962C67.541 50.625 68.1345 48.1945 69.3215 45.7048C70.5084 43.215 72.3087 40.824 74.7221 38.5319L75.9091 37.4056H84.5738L85.8202 38.4726C88.1941 40.4881 89.9152 42.5431 90.9834 44.6377C92.0517 46.7324 92.5858 49.0837 92.5858 51.692C92.5858 55.881 91.4781 59.1613 89.2623 61.5325C87.0863 63.8642 84.0201 65.03 80.0634 65.03ZM80.6569 56.138C82.556 56.138 84.0201 55.8022 85.0486 55.1303C86.1169 54.4583 86.651 53.5496 86.651 52.4034C86.651 52.0477 86.5721 51.6722 86.4136 51.2771C86.2949 50.882 86.038 50.4472 85.6421 49.9729C85.2466 49.4987 84.7124 48.9453 84.0397 48.3131C83.3673 47.6809 82.4967 46.9496 81.4284 46.1197L79.3512 44.5192H78.8764L77.1554 46.179C76.483 46.8509 75.9091 47.4437 75.4343 47.9574C74.9595 48.4711 74.5639 48.9652 74.2473 49.4394C73.9705 49.8742 73.7725 50.3087 73.6538 50.7435C73.5351 51.1784 73.4758 51.6327 73.4758 52.107C73.4758 53.2926 73.9903 54.2609 75.0188 55.0117C76.0871 55.7625 77.5708 56.138 79.4699 56.138H80.6569ZM84.3365 32.6632C83.308 32.6632 82.4572 32.347 81.7845 31.7147C81.1516 31.0825 80.8349 30.0748 80.8349 28.6915C80.8349 27.3083 81.1516 26.3005 81.7845 25.6682C82.4572 25.0359 83.308 24.7197 84.3365 24.7197H85.5234C86.5522 24.7197 87.3831 25.0359 88.016 25.6682C88.6887 26.3005 89.0249 27.3083 89.0249 28.6915C89.0249 30.0748 88.6887 31.0825 88.016 31.7147C87.3831 32.347 86.5522 32.6632 85.5234 32.6632H84.3365ZM74.9595 32.6632C73.931 32.6632 73.0802 32.347 72.4075 31.7147C71.7746 31.0825 71.458 30.0748 71.458 28.6915C71.458 27.3083 71.7746 26.3005 72.4075 25.6682C73.0802 25.0359 73.931 24.7197 74.9595 24.7197H76.1465C77.1752 24.7197 78.0061 25.0359 78.6391 25.6682C79.3118 26.3005 79.648 27.3083 79.648 28.6915C79.648 30.0748 79.3118 31.0825 78.6391 31.7147C78.0061 32.347 77.1752 32.6632 76.1465 32.6632H74.9595ZM90.2068 69.6538H92.5808C96.1814 69.6538 98.8123 68.9226 100.474 67.4605C102.176 65.9983 103.006 63.5678 102.967 60.169C102.967 59.26 102.907 58.3115 102.789 57.3236C102.67 56.296 102.512 55.2094 102.314 54.0632L101.067 46.179L107.536 45.1712L108.189 49.4987L117.982 47.8981V42.8001H124.51V51.0399C124.51 52.8183 124.866 54.0039 125.578 54.5967C126.29 55.1501 127.517 55.4267 129.258 55.4267H131.038V62.5402L129.258 64.3186H128.605C125.598 64.3186 123.264 63.7258 121.602 62.5402C119.94 61.3152 118.852 59.3391 118.338 56.6122L109.376 58.0942C109.416 58.4105 109.436 58.7265 109.436 59.0427C109.436 59.359 109.436 59.6355 109.436 59.8726C109.436 62.7181 109.079 65.287 108.367 67.579C107.655 69.8711 106.587 71.8273 105.162 73.4477C103.738 75.1075 101.978 76.3723 99.8805 77.2416C97.7838 78.111 95.3701 78.5458 92.6401 78.5458H90.2068V69.6538ZM125.281 77.0638C124.253 77.0638 123.402 76.7475 122.729 76.1153C122.097 75.4831 121.78 74.4753 121.78 73.092C121.78 71.7087 122.097 70.701 122.729 70.0688C123.402 69.4365 124.253 69.1203 125.281 69.1203H126.468C127.497 69.1203 128.328 69.4365 128.961 70.0688C129.634 70.701 129.97 71.7087 129.97 73.092C129.97 74.4753 129.634 75.4831 128.961 76.1153C128.328 76.7475 127.497 77.0638 126.468 77.0638H125.281ZM115.904 77.0638C114.876 77.0638 114.025 76.7475 113.352 76.1153C112.72 75.4831 112.403 74.4753 112.403 73.092C112.403 71.7087 112.72 70.701 113.352 70.0688C114.025 69.4365 114.876 69.1203 115.904 69.1203H117.091C118.12 69.1203 118.951 69.4365 119.584 70.0688C120.257 70.701 120.593 71.7087 120.593 73.092C120.593 74.4753 120.257 75.4831 119.584 76.1153C118.951 76.7475 118.12 77.0638 117.091 77.0638H115.904ZM129.254 57.205L131.034 55.4267H135.129C137.345 55.4267 139.323 55.4068 141.064 55.3674C142.844 55.2882 144.526 55.1303 146.108 54.8931C147.691 54.656 149.234 54.3003 150.737 53.8261C152.241 53.3519 153.843 52.6998 155.545 51.8699L157.741 50.8028V50.5064L148.245 48.4909L139.283 46.2976V50.7435H132.458V46.179C132.458 43.373 133.052 41.3181 134.239 40.0139C135.465 38.7098 137.325 38.0577 139.817 38.0577C140.134 38.0577 140.45 38.0775 140.767 38.117C141.123 38.1564 141.519 38.2157 141.954 38.2948C142.429 38.3739 142.983 38.4925 143.616 38.6505C144.249 38.8085 145.04 39.0062 145.99 39.2433L157.444 42.2073C159.026 42.6421 160.728 42.9779 162.548 43.215C164.368 43.4521 166.168 43.5707 167.948 43.5707H169.135V52.4627H164.506L158.927 56.2566C156.316 58.035 153.962 59.4577 151.865 60.5247C149.808 61.5523 147.849 62.3624 145.99 62.9552C144.13 63.5086 142.33 63.8838 140.589 64.0815C138.848 64.2395 137.028 64.3186 135.129 64.3186H129.254V57.205ZM149.729 77.0638C148.7 77.0638 147.849 76.7475 147.177 76.1153C146.544 75.4831 146.227 74.4753 146.227 73.092C146.227 71.7087 146.544 70.701 147.177 70.0688C147.849 69.4365 148.7 69.1203 149.729 69.1203H150.916C151.944 69.1203 152.775 69.4365 153.408 70.0688C154.081 70.701 154.417 71.7087 154.417 73.092C154.417 74.4753 154.081 75.4831 153.408 76.1153C152.775 76.7475 151.944 77.0638 150.916 77.0638H149.729Z" fill="url(#paint13_linear_514_4605)"/>
</g>
<defs>
<linearGradient id="paint0_linear_514_4605" x1="227.988" y1="52.9345" x2="267.693" y2="52.9345" gradientUnits="userSpaceOnUse">
<stop stop-color="#44B8BE"/>
<stop offset="1" stop-color="#FFF9BF"/>
</linearGradient>
<linearGradient id="paint1_linear_514_4605" x1="239.648" y1="66.6779" x2="272.992" y2="66.6779" gradientUnits="userSpaceOnUse">
<stop stop-color="#44B8BE"/>
<stop offset="1" stop-color="#FFF9BF"/>
</linearGradient>
<linearGradient id="paint2_linear_514_4605" x1="189.87" y1="32.7076" x2="255.982" y2="32.7076" gradientUnits="userSpaceOnUse">
<stop stop-color="#44B8BE"/>
<stop offset="1" stop-color="#14828A"/>
</linearGradient>
<linearGradient id="paint3_linear_514_4605" x1="231.055" y1="80.2604" x2="231.081" y2="80.2604" gradientUnits="userSpaceOnUse">
<stop stop-color="#44B8BE"/>
<stop offset="1" stop-color="#14828A"/>
</linearGradient>
<linearGradient id="paint4_linear_514_4605" x1="181.896" y1="69.4629" x2="247.1" y2="69.4629" gradientUnits="userSpaceOnUse">
<stop stop-color="#44B8BE"/>
<stop offset="1" stop-color="#FFF9BF"/>
</linearGradient>
<linearGradient id="paint5_linear_514_4605" x1="235.914" y1="82.5744" x2="236.043" y2="82.5744" gradientUnits="userSpaceOnUse">
<stop stop-color="#44B8BE"/>
<stop offset="1" stop-color="#14828A"/>
</linearGradient>
<linearGradient id="paint6_linear_514_4605" x1="233.148" y1="83.0089" x2="235.11" y2="83.0089" gradientUnits="userSpaceOnUse">
<stop stop-color="#44B8BE"/>
<stop offset="1" stop-color="#14828A"/>
</linearGradient>
<linearGradient id="paint7_linear_514_4605" x1="231.053" y1="80.2924" x2="231.102" y2="80.2924" gradientUnits="userSpaceOnUse">
<stop stop-color="#44B8BE"/>
<stop offset="1" stop-color="#14828A"/>
</linearGradient>
<linearGradient id="paint8_linear_514_4605" x1="230.869" y1="81.8114" x2="231.127" y2="81.8114" gradientUnits="userSpaceOnUse">
<stop stop-color="#44B8BE"/>
<stop offset="1" stop-color="#14828A"/>
</linearGradient>
<linearGradient id="paint9_linear_514_4605" x1="220.699" y1="65.5243" x2="220.721" y2="65.5243" gradientUnits="userSpaceOnUse">
<stop stop-color="#44B8BE"/>
<stop offset="1" stop-color="#14828A"/>
</linearGradient>
<linearGradient id="paint10_linear_514_4605" x1="234.684" y1="48.0771" x2="242.883" y2="48.0771" gradientUnits="userSpaceOnUse">
<stop stop-color="#44B8BE"/>
<stop offset="1" stop-color="#14828A"/>
</linearGradient>
<linearGradient id="paint11_linear_514_4605" x1="186.707" y1="75.6673" x2="231.231" y2="75.6673" gradientUnits="userSpaceOnUse">
<stop stop-color="#44B8BE"/>
<stop offset="1" stop-color="#FFF9BF"/>
</linearGradient>
<linearGradient id="paint12_linear_514_4605" x1="222.09" y1="24.8074" x2="232.599" y2="24.8074" gradientUnits="userSpaceOnUse">
<stop stop-color="#44B8BE"/>
<stop offset="1" stop-color="#14828A"/>
</linearGradient>
<linearGradient id="paint13_linear_514_4605" x1="47.4788" y1="64.3186" x2="170.329" y2="64.3186" gradientUnits="userSpaceOnUse">
<stop stop-color="#9ED8BF"/>
<stop offset="1" stop-color="#1C8B93"/>
</linearGradient>
<clipPath id="clip0_514_4605">
<rect width="273" height="107" fill="white"/>
</clipPath>
</defs>
</svg>
